/* XPM */
static char *banana[] = {
/* columns rows colors chars-per-pixel */
"64 38 187 2 ",
"   c #007F00",
".  c #644906",
"X  c #6C5203",
"o  c #735A09",
"O  c #6C551E",
"+  c #7A6235",
"@  c #8A7227",
"#  c #8E7732",
"$  c #907A38",
"%  c #008000",
"&  c #068408",
"*  c #0B860C",
"=  c #0E880F",
"-  c #0E8710",
";  c #0E8811",
":  c #138914",
">  c #178B18",
",  c #1B8D1C",
"<  c #218F1A",
"1  c #249225",
"2  c #2B9428",
"3  c #2B952B",
"4  c #32952D",
"5  c #2F9831",
"6  c #349933",
"7  c #3A9C38",
"8  c #3B9E3C",
"9  c #459B38",
"0  c #449E39",
"q  c #40A03F",
"w  c #51A038",
"e  c #63A53B",
"r  c #4F9242",
"t  c #539144",
"y  c #619D4B",
"u  c #7C8D53",
"i  c #47A142",
"p  c #4AA54A",
"a  c #57A647",
"s  c #5DA94B",
"d  c #52AA55",
"f  c #57AC5A",
"g  c #5CAD59",
"h  c #60AB4D",
"j  c #75AE4A",
"k  c #68AE54",
"l  c #72AF55",
"z  c #6FB25C",
"x  c #7BB35B",
"c  c #67A660",
"v  c #79AC69",
"b  c #6AB568",
"n  c #77B868",
"m  c #72B972",
"M  c #76BB79",
"N  c #7EBD78",
"B  c #9F832C",
"V  c #A4862B",
"C  c #C5961D",
"Z  c #D5A10B",
"A  c #EDAF06",
"S  c #EDB107",
"D  c #EDB109",
"F  c #F0B307",
"G  c #F1B806",
"H  c #F0B40A",
"J  c #F0B90C",
"K  c #EEB413",
"L  c #EFB813",
"P  c #EEB61B",
"I  c #F1B314",
"U  c #F1BA13",
"Y  c #F1B61A",
"T  c #F2BC1C",
"R  c #DCB62C",
"E  c #D3A939",
"W  c #C5B533",
"Q  c #C5B73C",
"!  c #DEB933",
"~  c #EDB722",
"^  c #E5B926",
"/  c #EEB921",
"(  c #EDBB2B",
")  c #F1BC25",
"_  c #F2BD2C",
"`  c #EFBE31",
"'  c #F0BE35",
"]  c #F3C12C",
"[  c #F3C334",
"{  c #F5C63A",
"}  c #F5C83C",
"|  c #998E52",
" . c #80AF4C",
".. c #90B24C",
"X. c #84B65C",
"o. c #B0B647",
"O. c #8BAA6D",
"+. c #8BB962",
"@. c #86BA6A",
"#. c #94BC65",
"$. c #8EB877",
"%. c #A5BE65",
"&. c #ACA275",
"*. c #D1B849",
"=. c #C2AF60",
"-. c #98C06D",
";. c #8EC37F",
":. c #91C179",
">. c #A4C166",
",. c #A7C16E",
"<. c #B9C267",
"1. c #A7C476",
"2. c #A3C67D",
"3. c #BAC675",
"4. c #BCCA7B",
"5. c #CDC154",
"6. c #D8C356",
"7. c #DDC65D",
"8. c #E9C249",
"9. c #F5C641",
"0. c #F5C945",
"q. c #F4C54E",
"w. c #F5CA4B",
"e. c #EFC755",
"r. c #F5CC52",
"t. c #F8CE56",
"y. c #F5CD5A",
"u. c #F6D05D",
"i. c #C7CE78",
"p. c #DBD17A",
"a. c #EDCD6C",
"s. c #F5CD65",
"d. c #F6D164",
"f. c #F6D46C",
"g. c #F8D369",
"h. c #E3CE74",
"j. c #F6D674",
"k. c #F9D675",
"l. c #F5D779",
"z. c #F9D778",
"x. c #F7D87A",
"c. c #F9D97B",
"v. c #87C489",
"b. c #8DC68C",
"n. c #9AC683",
"m. c #9ACC98",
"M. c #A6CA87",
"N. c #ADCB8B",
"B. c #BBCB82",
"V. c #BFD18A",
"C. c #ADCD9A",
"Z. c #B8D39C",
"A. c #AFD7AE",
"S. c #B7D7A9",
"D. c #AFD8B0",
"F. c #B6DCB8",
"G. c #C7CF87",
"H. c #D3D182",
"J. c #D6D389",
"K. c #E1D581",
"L. c #EAD986",
"P. c #F9DB84",
"I. c #F7DD8A",
"U. c #F9DE8B",
"Y. c #E9DB95",
"T. c #EDDD96",
"R. c #F4DB92",
"E. c #F5DE96",
"W. c #F6E095",
"Q. c #FAE095",
"!. c #FAE29B",
"~. c #CBC0A2",
"^. c #D7DAA2",
"/. c #DEDEA2",
"(. c #C3DEBA",
"). c #D8D1B1",
"_. c #E6DFA8",
"`. c #E4E0A3",
"'. c #F6E4A6",
"]. c #F3E4AB",
"[. c #F9E9BC",
"{. c #CBE5CA",
"}. c #DBE5C0",
"|. c #CFE8D0",
" X c #DCEAD1",
".X c #EAE9C5",
"XX c #FBEDC9",
/* pixels */
"% % % % % % % % % % % % % % % % % % % % % % % % % % % % % % % % % % % % % % % % % % % % % % % % % % % % % % % % % % % % % % % % ",
"% % % % % % % % % % % % % % % % % % % % % % % % % % % % % % % % % % % % % % % % % % % % % % % % % % % % % % % % % % % % % % % % ",
"% % % % % % % % % % % % % % % % % % % % % % % % % % % % % % % % % % % % % % % % % % % % % % % % % %   % % % % % % % % % % % % % ",
"%         % % % % % % % % % % % % % % % % % % % % % % % % % % % % % % % % % % % % % % % % % % % % % % % % % % % % % % % % % % % ",
"% 3 y d         % % % % % % % % % % % % % % % % % % % % % % % % % % % % % % % % % % % % % % % % % % % % % % % % % % % % % % % % ",
"3 u $ &.v :   & % % % % % % % % % % % % % % % % % % % % % % % % % % % % % % % % % % % % % % % % % % % % % % % % % % % % % % % % ",
"9 O X @ | y     % % % % % % % % % % % % % % % % % % % % % % % % % % % % % % % % % % % % % % % % % % % % % % % % % % % % % % % % ",
"t O X @ # | r   % % % % % % % % % % % % % % % % % % % % % % % % % % % % % % % % % % % % % % % % % % % % % % % % % % % % % % % % ",
"8 u . o # B u =   % % % % % % % % % % % % % % % % % % % % % % % % % % % % % % % % % % % % % % % % % % % % % % % % %       % % % ",
"% c + X @ V =.i   % % % % % % % % % % % % % % % % % % % % % % % % % % % % % % % % % % % % % % % % % % % % % % % % %       % % % ",
"% b ).C Z K ] a =   % % % % % % % % % % % % % % % % % % % % % % % % % % % % % % % % % % % % % % % % % % % %       % * * : & % % ",
"% * m h.S D J <.v.>   % % % % % % % % % % % % % % % % % % % % % % % % % % % % % % % % % % % % % % % % % % %     : q O.$.{.p % % ",
"%   : N._ A S ^ 2.1 % % % % % % % % % % % % % % % % % % % % % % % % % % % % % % % % % % % % % % % % % %     * > n.Y.*.V ~.A.1   ",
"% %   p 7.S S J r.4.k < *       % % % % % % % % % % % % % % % % % % % % % % % % % % % % % % % % % %     = 1 @.i.x.t.{ ( E C.1   ",
"% %   & ..K D ( [ w.j.p.1.9 : = % % % % % % % % % % % % % % % % % % % % % % % % % % % % % % %   % % , 4 M.H.c.k.q.{ { { _ [.v.  ",
"% %     X.~ P [ { { 0.g.k.L.V.n = % % % % % % % % % % % % % % % % % % % % % % % % % % % % %     , 8 #.K.z.k.g.w.{ { { ' ( /.p   ",
"% % %   e P ~ [ { { { 0.f.j.c.K.M.g > % %   % % % % % % % % % % % % % % % % % % % % % % % % 1 p M.W.c.j.j.y.9.{ } { [ ( 9.n %   ",
"% % % %  .P ) { { { { { 0.d.j.j.c.'.:.5 &   % % % % % % % % % % % % % % % % % % % % %   & d M.].Q.U.j.j.r.} { { { { ' ( *.3   % ",
"% % % % +.Y K [ { { { { { 9.d.j.P.I.P.`.;.8 %   % % % % % % % % % % % % % % % % %   % 8 z /.!.!.!.P.d.0.{ } } } { [ ( ( j   % % ",
"% % % % $._ S ) { { { { { { { r.x.Q.Q.P.Q./.h > % % % % % % % % % % % % %       * 8 z /.!.!.!.!.x.r.{ { { { { } [ ` ~ 6.6   % % ",
"% % %   g e.S D ] } { { { { { { w.g.U.!.Q.P.L.i.+.n :.3 % % % %   %   % = 0 b s #.Y.W.!.!.!.P.u.0.{ { { } [ } [ ' ( _ 1.*   % % ",
"% % %   > <.J S K ] { { { { { { [ } r.k.Q.!.!.U.U.U.T.i.,.#.X.+.+.l j #.%.J.!.I.U.!.!.!.P.d.0.{ { { { { } } [ ` ( Y 5.8   % % % ",
"% % % %   k 9.S D D ( { { { { { { { { 9.u.k.U.Q.Q.!.Q.!.!.!.U.c.P.c.c.c.P.E.!.!.!.U.l.y.0.{ { { { { } } { [ [ ( K ( x & % % % % ",
"% %     & > G.P S S S L ] { { } { { { [ { { w.d.j.c.P.P.I.P.x.j.k.j.j.k.c.I.I.c.g.r.0.{ { { { { { { [ [ ] Y K D D E.M   % % % % ",
"% % % % % & b.h.D S D S D K Y T ) _ [ { { { { { 9.r.t.s.g.f.k.k.j.j.f.f.g.u.w.} } { { { { { { { [ ] K D D D A A s.(.8     % % % ",
"% % % % % % & 0 *.D S D D A S S G G U ) [ { { { { ' ' ' } 0.0.w.0.0.0.} { { { { { { { { { { { ] K S S D D D A q.}.8   % % % % % ",
"% % % % % % % % 0 7.K S A D D D S G G G J T _ { ' { { { { { [ { [ [ } } { { { { { { { } { [ ] K S S A D A D 8.}.m.      % % % % ",
"% % % % % % %   ; S.R.~ A D D D D F F F J J D T ' ' { { { } } { } } { { { { { { { { { { [ ~ S S S S A A K a.S.5 :       % % % % ",
"% % % % % % % % % 6 {.XXy.K A A D D A D A D F F J T _ [ [ } { { { { { } { { { { [ ' ( / K D D F S A A ( Y.N d &   % % % % % % % ",
"% % % % % % % %   & 6 F. XJ.! K A A A A A D D A F F H H T T _ ] ] [ [ [ [ ] ( ~ P K K S A D D A S K a..X{.3     % % % % % % % % ",
"% % % % %   % %   %   = , , s E.q.Y A A D D D D F F A D F S S S D D K D S S S S A A D D D A A I y._.|.f > % % % % % % % % % % % ",
"% % % % % % % %   % % %     1 D.(.i.*.^ D D A D A F D A S S S D S D S S S S S S D D A A D ~ 6.B.m.f = &   % % % % % % % % % % % ",
"% % % % % % % % % % % % % % % * : ; : l <.W ^ K F A A D A D D D S D D D A A D A F I ~ 8.Y.N.6 > & &     % % % % % % % % % % % % ",
"% % % % % % % % % % % % % %   %       * ; - a ,.o.Q ! ~ ~ Y D D D K K P P ~ R W o.3.$.g M :         % % % % % % % % % % % % % % ",
"% % % % % % % % % % % % % % % %   % % %     & : = : 3 w +.^._.].].].%.%.X.Z.S.1 * * * %     % % % % % % % % % % % % % % % % % % ",
"% % % % % % % % % % % % % % % % % % % %     %           & 1 8 d d d 1 1 > g m * %     %   % % % % % % % % % % % % % % % % % % % ",
"% % % % % % % % % % % % % % % % % % % % % % % %         %                       % % % % % % % % % % % % % % % % % % % % % % % % ",
"% % % % % % % % % % % % % % % % % % % % % % % %     %   % % % %   %             % % %   % % % % % % % % % % % %   % % % % % % % "
};
