/* XPM */
static char *door[] = {
/* columns rows colors chars-per-pixel */
"49 64 174 2 ",
"   c #007F00",
".  c #1A7F13",
"X  c #2A7E1F",
"o  c #357D26",
"O  c #3C7B2A",
"+  c #564B3E",
"@  c #594D3F",
"#  c #6F4D34",
"$  c #7D4F30",
"%  c #7C533C",
"&  c #407D2E",
"*  c #487B33",
"=  c #5B773F",
"-  c #527A3B",
";  c #3B4946",
":  c #4C4C43",
">  c #524D41",
",  c #674A41",
"<  c #7F574C",
"1  c #5C7841",
"2  c #6C6E47",
"3  c #7B644E",
"4  c #746A4B",
"5  c #677647",
"6  c #74704D",
"7  c #7C6750",
"8  c #7C6B53",
"9  c #757251",
"0  c #99512B",
"q  c #875736",
"w  c #935A35",
"e  c #9D5C33",
"r  c #93543C",
"t  c #9D5B3D",
"y  c #AD592C",
"u  c #B35D2D",
"i  c #BC5D2A",
"p  c #A45E32",
"a  c #AC5D36",
"s  c #A45C3B",
"d  c #AA5F38",
"f  c #B25D33",
"g  c #BD632E",
"h  c #AD6131",
"j  c #B36135",
"k  c #BC6131",
"l  c #C45B26",
"z  c #CD5B23",
"x  c #C25F2D",
"c  c #D05E24",
"v  c #CB6127",
"b  c #C4632D",
"n  c #CC642B",
"m  c #CD682C",
"M  c #D56426",
"N  c #D86727",
"B  c #DA6827",
"V  c #D36629",
"C  c #D96728",
"Z  c #D5692B",
"A  c #DC6B29",
"S  c #C26431",
"D  c #DB7235",
"F  c #E06C28",
"G  c #865645",
"H  c #895644",
"J  c #8D5945",
"K  c #82574A",
"L  c #83594D",
"P  c #8A5B4C",
"I  c #945A42",
"U  c #9A5B42",
"Y  c #935C4A",
"T  c #855D51",
"R  c #826252",
"E  c #886154",
"W  c #846A56",
"Q  c #8D655A",
"!  c #90695E",
"~  c #926C60",
"^  c #987266",
"/  c #9A7569",
"(  c #9E796E",
")  c #A17D71",
"_  c #008000",
"`  c #088307",
"'  c #0C840B",
"]  c #11840E",
"[  c #148611",
"{  c #1C8316",
"}  c #178915",
"|  c #188916",
" . c #1E8619",
".. c #1D8B1A",
"X. c #24811B",
"o. c #208C1D",
"O. c #288A23",
"+. c #318326",
"@. c #3B812C",
"#. c #2E912A",
"$. c #32922D",
"%. c #369431",
"&. c #3A9333",
"*. c #3F9838",
"=. c #438233",
"-. c #41973B",
";. c #4B9A44",
":. c #509C48",
">. c #5B9F51",
",. c #59A24F",
"<. c #5FA155",
"1. c #60A156",
"2. c #65A45A",
"3. c #69A45D",
"4. c #6EA662",
"5. c #78A96A",
"6. c #7EAB70",
"7. c #9C957C",
"8. c #A78478",
"9. c #AC8A7F",
"0. c #84AD76",
"q. c #8CAD7B",
"w. c #8DB47C",
"e. c #DA804D",
"r. c #DB8351",
"t. c #D88D63",
"y. c #DA9168",
"u. c #DA9975",
"i. c #AD8C81",
"p. c #B19085",
"a. c #B5958A",
"s. c #B9998E",
"d. c #BC9D92",
"f. c #93B382",
"g. c #9CB689",
"h. c #9EB58B",
"j. c #A1BA8D",
"k. c #B7A997",
"l. c #A9B795",
"z. c #ACBB96",
"x. c #AFBC99",
"c. c #B0BF99",
"v. c #BABCA2",
"b. c #C49A88",
"n. c #DAA78A",
"m. c #C4A79C",
"M. c #D8AD96",
"N. c #D9AF98",
"B. c #DCB199",
"V. c #C8ACA2",
"C. c #CAB1A5",
"Z. c #C3BFAA",
"A. c #D8B9AA",
"S. c #D6BDB2",
"D. c #B3C09C",
"F. c #BCC3A5",
"G. c #C1C5A7",
"H. c #C2C5A9",
"J. c #CFC2AF",
"K. c #CCC2B2",
"L. c #D1C3B6",
"P. c #DAC1B6",
"I. c #D1C8B5",
"U. c #D5C4B9",
"Y. c #DCC5BB",
"T. c #D4C8B8",
"R. c #DDCABE",
"E. c #E1C9BE",
"W. c #DFCAC0",
"Q. c #E3CDC3",
"!. c #E7D1C6",
"~. c #E8D2C7",
"^. c #E7D2C8",
"/. c #EAD2C8",
/* pixels */
"_ _ _ _ _ _ _ _ _ _ _ _ _ _ _ _ _ _ _ _ _               _ _ _ _ _ _ _ _ _ _ _ _ _ _ _   _ _   _ _ ",
"_ _ _ _ _ _   _ _ _ _   _ _ _ _ _ _ _   _ [ #.&.%...`   _ _ _ _ _ _ _ _ _ _ _ _ _ _ _ _ _ _ _ _ _ ",
"_ _ _ _ _ _ _ _ _ _ _ _ _ _ _ _ _   _ | 3.x.K.L.L.v.q.&._ _ _ _ _ _ _ _ _ _ _ _ _ _ _ _ _ _ _ _ _ ",
"_ _ _ _ _ _ _ _ _ _ _ _ _ _   _ _   %.l.W.Q.Q.Q.Q.Q.Q.K.3.' _ _ _ _ _ _   _ _ _ _ _ _   _ _ _ _ _ ",
"  _ _   _ _   _ _ _ _     _     _ $.F.!.!.!.!.!.^.!.!.!.R.4._ ` $.1.3.;.[   _ _ _ _ _ _ _ _ _ _ _ ",
"_ _ _ _ _ _ _ _ _ _   ' ;.5.6.:.| g./.!.Q.R.!.!./.!.!.!.!.I.%.3.I.Q.Q.U.g.O._ _ _ _ _ _ _ _ _ _ _ ",
"_ _ _ _ _ _ _ _ _   } q.U.Q.!.Q.x.T.!.U.R.E.E.E.E.Q.!.!.!.!.F.R./.^.^.Q.W.l.o._ _ _ _ _   _ _ _ _ ",
"_ _ _ _ _ _ _ _ _ [ f.Q.Q.Q.!.!./.Q.P.d.9.) / ^ ^ / 8.s.C.Y.^.!./.Q.!.!.Q.Y.g.|   _ _ _ _ _ _ _ _ ",
"_ _ _ _ _       ` 6.W.!.!.!./.Q.A.9.! L K < K K K L < L E / s.Y./.!.!.!.!.!.Y.0.` _ _ _ _ _ _ _ _ ",
"_ _ _ _ _       >.U.Q.!.!./.P.p.Q K < J d f S b b k h s J K L ^ m.Q.!.!.!.!.!.I.1._ _ _ _ _   _ _ ",
"_ _ _ _ _ _   %.H.Q./.!.!.C.^ L K t S A B M B A M C A A m f J K T 9.Y.!.!.!.!.Q.Z.$.  _ _ _ _ _ _ ",
"_ _ _ _ _   ` f.Q.Q./.!.m.Q < I S Z A A A M A A M C A A A C Z d K L ) P./.!.!.!.Q.f.`   _ _ _ _ _ ",
"  _ _ _     ..H.!.!./.m.Q L t n F C A A A M A F N C A A A C C M S J L ) P./.!.!.W.Z.O._ _ _ _ _ _ ",
"_ _ _ _     [ v.^.!.A.! K s V N A C A A A V A A M C A A A C A B A m J L 8.Q.!.Q.Q.U.&.  _ _ _ _   ",
"_ _ _ _   [ #.f.!.Y.( L t Z A M A C A B C M A A C C A A A C C B A A S P T d.!.!.!.L.#.  _ _ _ _ _ ",
"_ _ _ _ :.x.K.I.W.s.L J m A B N A C A N C N A A V C F A A C C C A A A j K ! S./.~.z.'   _ _ _ _ _ ",
"_ _   -.Z.Q././.S.! K y B A C C A C A C C N A A N C A A A B C C A A A c r L i.Q.Q.0.%.    _ _ _ _ ",
"_   [ l.Q.Q.!.Q.a.T I z A A A M A C B C A C A A M C A A A M C C A A F M i K Q S./.Q.K.5.` _   _ _ ",
"_   ;.L.Q.^.Q.P.^ K k c A A C M A C A C A C A A M C A A A M C M A A A M c U T d.^.!.Q.L.;.  _ _ _ ",
"_ _ 0.Y.^.W.S.V.T J n c A A A N A C C C B C A A N A A A A M N N A A A M M d K / Q.^.Q.Q.g.' _ _ _ ",
"  ' l.Q.^.Q.Q.a.L t M c A A A N A M C C A C A A M M A A A M N N F A A C M x H Q S.!.!.Q.S.$.    _ ",
"  { v.Q.!.!.Q.8.K f M c A A A V A N C C C C A A M M A A A M M C A A A C M V I T V.!.!.!.Y.2.    _ ",
"  | x.!.!.!.Q.^ K S C c A A C C A C C C A A A F M c A A A M M C A A A C M V t L d.!.!.!.W.0._ _ _ ",
"  | v.Q.!.!.Y.~ K n N c A A C M A N C V A A A A M M A A A M N C A A A V M V h < p.Y.Q.!.Q.q._ _ _ ",
"  ' l.Q.!./.P.! G m V M A A C M A C C C A C A A M z A A A M C M F A A Z M M a K i.Y.R.^.Q.q._ _ _ ",
"    :.U././.P.! G m N c A A M c A C C C A C A A M z A A A C C M A A A M M N h K 9.Q.Q.!.Y.0._   _ ",
"_ _ ` *.w.F.J.~ H b N c A A c c A C C C A C A A M z A A A C N M A A F M M V d < i.Q.!.!.L.;.    _ ",
"_ _ _   _ ] &.W K b N c A F c c F C C C A C A A z c A A A C N M A A S i M C s < d./.!.R.f.'     _ ",
"_ _ _ _ _   ` 4 P b N c A A M c A A C C A C A A c z A A A C C M A A p a i i G K 7.g.f.<.[   _ _   ",
"_ _ _ _ _ _ ' 6 K S C c A A c c A C C C C C A F c z A A A C C M A e > : : : , T - ` ` _ _ _ _ _ _ ",
"_ _ _ _ _ _ ' 9 K S C c A A c c A C A C A C A A c z A A A C C M A h # > @ > , T =.  _ _ _ _ _ _ _ ",
"_   _ _ _   ` 5 K i A c A A M c A A C C C C C A c z A A F C C V A A a i c x H T @._ _ _ _ _ _ _ _ ",
"_ _ _ _ _ _ _ 5 K k B z A A M c A C C N C N A F M z A A A N B M A A m g M N t R +.    _   _ _   _ ",
"  _ _ _ _ _ _ = L k B M B A c c A C A M C Z A A v z A A A N C M A A A V M N I 3 X _ _ _ _ _ _ _ _ ",
"_ _ _ _ _ _   - L j B M A A c z F C A M C N C A c z A A A C A M A A A N N M I L X._ _ _ _ _ _ _ _ ",
"_ _ _ _ _ _   * T j B M A A c c A C A M N M A F c z A A A C C M A A A V M Z I 3 . _ _ _ _ _ _ _ _ ",
"_ _ _ _ _ _ _ O T f C M A A c z F C A Z B M A A c z A A A C C M A A A M N V I 7 {     _ _ _ _ _ _ ",
"_ _ _ _ _ _ _ =.T d C M A A c z F A C M N M B A c z A A A C C M A A A M N V J W  .  _ _ _ _ _ _ _ ",
"_ _ _ _     ` @.T h C M B A c z A A A V N N A A c z A A A C N M A A A N N V J 8 [   _ _ _ _ _ _ _ ",
"_ _ _     `   +.R h C M g h l z A C A N N N A A M z A A A N C M A A A N N n P 4 ] _ _ _ _ _ _ _ _ ",
"_ _ _ _ _ _ _ X.R s C n + ; 0 z A A A M B N C A c z C A A C C M A A F A C n P 2 `   `   _ _ _ _ _ ",
"_ _ _ _ _ _ _ X.7 s A y # $ 0 l A A A N B N A A z z A A A C N M A A A N C n J 2         _ _ _ _ _ ",
"_ _ _ _     _ [ 3 t N w g A u i F C A M C C A A M z A A A C A c A A A A N b P 5 ` _   _ _ _ _ _ _ ",
"_ _   _       { W t N e w j q i A A A N C C A F M z A A A C C M A A A A C b P 5 `   _ _ _ _ _ _ _ ",
"_   _ _ _ _   [ 8 U C v e w y z A C A M V B A A M z N A A B B c A A F A C S P 5 _ _ _ _ _ _ _ _ _ ",
"_ _ _ _ _ _   ] 9 U V N B B z c A C A M N M A A c z A A A N N z A A A C B b P 1 _ _ _ _ _ _ _ _ _ ",
"_ _ _ _ _ _   ` 2 U M M A A z c F A C M B C A A M z A A A B N z A A A N N g P - _ _ _ _ _ _ _ _   ",
"_ _ _ _ _ _   ` 2 I M B A A z v A A A M M A A A M z A A A N N z A A A N N k T * _ _ _ _ _ _ _ _ _ ",
"_ _ _ _ _ _ _ ` = I V V A A c c A B A M M Z A F Z z A A A N N z A A A C C k T O _ _ _ _ _ _ _ _ _ ",
"_ _ _ _ _ _ _ _ 5 Y c C A A z c A B A M M A A A M z A A A N N z A C m V C k T @._ _ _ _ _ _ _ _ _ ",
"_ _   _ _ _ _ _ 1 Y c C A A z c A B A c M A A A N z A A A N N z A b x C C a R @._ _ _ _ _   _ _ _ ",
"_ _ _ _ _ _ _ _ ;.Y c c A A z z A B B c M N A A M z A F A M N z A e q w w % T +._ _ _ _ _ _ _ _ _ ",
"_ _ _ _ _ _ _ _ - Y x C A A c c A A A v Z A A F M z A A A B N c h : ; ; ; > T +._ _ _ _ _ _ _ _ _ ",
"_ _ _ _ _ _ _ _ & Y x C A A z c A M A M B A A A M z A A A M N c Z w % q q % T X _ _ _ _ _ _ _ _ _ ",
"_   _ _ _ _ _ _ o P x A A A z c A B B M M A A A M z N A A M B c A S g Z N t R .   _ _ _ _ _ _ _ _ ",
"_ _ _ _ _   _ _ X T x C A A z c A M B M B A A F M M A A A M B v A A m Z N s 3 [ _ _ _ _ _ _ _ _ _ ",
"_ _ _ _ _ _ _ _ X.T x C A A c M A M A M M B F A M M A A M M B z A A A A B p 4 . _ _ _ _ _ _ _ _ _ ",
"_ _ _ _ _ _ _ _ O.Q k C A A c M A B A M M A F D M V A A A M A M A A A B B s 2 ` _ _ _ _ _ _ _ _ _ ",
"_ _ _ _ _ _ _ _ O.Q S A A D V M A A D Z Z D D F A M A A A Z A n A A F B M t 4 ' _ _ _ _ _ _ _ _ _ ",
"_ _ _ _ _ _ ' 2.z.V.N.B.B.N.n.t.y.B.P.P.A.B.B.u.e.t.M.B.B.B.B.B.M.t.r.y.u.b.k.0.#._ _ _ _ _ _ _ _ ",
"_ _ _ _ _ _ $.R./.^.^.^./.^.^.Q.!.^.!.!.^.^.!.!.P.E.^.^.^.^.^.^.^.E.E.!.^./././.j.` _ _ _ _ _ _ _ ",
"_ _ _ _ _ _ *.!././././././././././.^./.^.^.^.!.!.!./.!.^.^.^./././././.^./././.z.` _ _ _ _ _ _   ",
"_ _ _ _ _ _ ..w.D.D.H.H.H.G.G.c.w.D.F.G.F.G.F.D.3.D.F.G.G.H.H.D.D.f.g.H.G.G.G.D.,._ _ _   _ _ _ _ ",
"_ _ _ _ _ _ _ _ ' ' } } } } } [ ` ' } } } } | ' _ [ } | | | | ' ' _ ` | [ } } [ _ _ _ _ _ _ _ _ _ "
};
