/* XPM */
static char *grass[] = {
/* columns rows colors chars-per-pixel */
"64 55 146 2 ",
"   c #051C07",
".  c #091E07",
"X  c #072507",
"o  c #072A07",
"O  c #052408",
"+  c #09240B",
"@  c #0C2C09",
"#  c #063005",
"$  c #0A3307",
"%  c #0C3C06",
"&  c #0D340A",
"*  c #0E3B09",
"=  c #123E07",
"-  c #11330E",
";  c #113C0C",
":  c #143910",
">  c #183D11",
",  c #0E4306",
"<  c #0F4907",
"1  c #0E4209",
"2  c #114406",
"3  c #124C06",
"4  c #13440B",
"5  c #1A460F",
"6  c #144B0B",
"7  c #194E0E",
"8  c #165407",
"9  c #185606",
"0  c #155A07",
"q  c #195C07",
"w  c #16520B",
"e  c #19540C",
"r  c #175B09",
"t  c #1C5C0C",
"y  c #174410",
"u  c #194612",
"i  c #174D10",
"p  c #1A4C12",
"a  c #1E4818",
"s  c #175310",
"d  c #1C5412",
"f  c #1E5B11",
"g  c #215E0F",
"h  c #215514",
"j  c #225D13",
"k  c #235419",
"l  c #245B19",
"z  c #295E1F",
"x  c #196106",
"c  c #1E620B",
"v  c #1E6B0A",
"b  c #1F6111",
"n  c #21640D",
"m  c #236C0D",
"M  c #286F0F",
"N  c #25720D",
"B  c #29740E",
"V  c #26780C",
"C  c #2B7B0E",
"Z  c #236413",
"A  c #296516",
"S  c #256A12",
"D  c #296C14",
"F  c #256219",
"G  c #2A651A",
"H  c #276A18",
"J  c #2C6C1A",
"K  c #30661C",
"L  c #326D1D",
"P  c #277211",
"I  c #2B7414",
"U  c #277911",
"Y  c #2D7B13",
"T  c #2E731A",
"R  c #2F7919",
"E  c #317617",
"W  c #317C15",
"Q  c #32751B",
"!  c #337C1B",
"~  c #3A7E1D",
"^  c #285A21",
"/  c #2E6920",
"(  c #336F23",
")  c #347722",
"_  c #3A7323",
"`  c #367B21",
"'  c #3A7C23",
"]  c #3C782A",
"[  c #2E800E",
"{  c #30820E",
"}  c #2F8312",
"|  c #338315",
" . c #398617",
".. c #358A14",
"X. c #398B16",
"o. c #35831A",
"O. c #3A841C",
"+. c #368919",
"@. c #3C8B1B",
"#. c #3B9117",
"$. c #3E911C",
"%. c #368221",
"&. c #3B8422",
"*. c #3E8B21",
"=. c #3F8928",
"-. c #3F9020",
";. c #418D1E",
":. c #43931D",
">. c #48961E",
",. c #459B1B",
"<. c #499B1E",
"1. c #4BA11F",
"2. c #418523",
"3. c #428C23",
"4. c #488D25",
"5. c #43852B",
"6. c #448E28",
"7. c #4A8E2D",
"8. c #459322",
"9. c #4A9524",
"0. c #469820",
"q. c #4C9B24",
"w. c #459228",
"e. c #4B942A",
"r. c #4D9B29",
"t. c #519D25",
"y. c #50972F",
"u. c #529D2B",
"i. c #509130",
"p. c #549D31",
"a. c #589B32",
"s. c #4DA323",
"d. c #53A225",
"f. c #57AA26",
"g. c #54A32B",
"h. c #59A62C",
"j. c #55A92B",
"k. c #5CAB2D",
"l. c #5FB02C",
"z. c #55A232",
"x. c #5AA333",
"c. c #5AAA30",
"v. c #5EB030",
"b. c #61B32C",
"n. c #64B430",
"m. c #68B832",
/* pixels */
"I ! f d d p - T Z i f H T 6 d W F + + J &.d * &.p ; Z f b s F ~ T 8 s s J 7 f b w b f t ) / s d x.Q t t H ` Z T s Q T f @.R d t ",
"Z ! A s d u @ I I e s H J 4 e W I / ; T &.p * 2.h 1 b f f s b I ' r i d J 7 s b w d r t H T w ) a.t t Z ! Q Z D s R S F -.} f t ",
"T S Q d p k o Z Y j i F J y d Y P ` T ~ &.* ; 2.F * f t f s b H ` H 1 l G < s t 7 w w t b ) s p.T 6 w Z ) R H H d R f T -.} c e ",
"6.e Q f 6 T 5 f U P 6 f T 7 e T S b o.*.~ , ; *.J & w F f f f F H =.< l F 1 6 w 6 6 w b s H %.p.w 6 w e ! P S S G 6.f T +.Y n w ",
"9.i F Z 6 E J b V Y 7 d J d e P c e S %.! 6 6 O.~ @ i ) f d f b Z *.G F d ; j 6 4 4 7 ) e S r.&.* < < s ) T H b l z.S T +.R b w ",
"8.F 6 H e E ~ S N Y f i H G w S t 7 H o.O.F 6 o.&.; y ' f f d b b ! &.A i p e.7 < f f %.f Z z.J * d w s R o.T S 7 z.W S } U S < ",
";._ * l Z E ~ I m C Z 6 F L w c e 3 F ! o.&.Z W +.k y ' f f s f v I 2.Q 4 p u.6 f %.T &.w b r.A ; ) i f ) o.R b 6 u.3.S Y V S , ",
";.5.$ d I T W o.n B D 4 F T t e 7 6 b ! ! 8.o.! o.) i ` c f s r c S 2.Q = l u.7 F R T o.w f q.A f =.b b } R P f p u.d.S P V S , ",
"@.4.- 4 Q E W W m N P 6 l / H 6 4 5 f R Y *.o.T T *.F ) f f s r r c +.` ; J t.s J I P ! < f 8.S R +.o.P R Y m Z F 6.k.I m N m 2 ",
"$.4.2 4 A D o. .I m Y e h J J h * 4 b I Y @.+.I S +.o.R f s s e 0 t ! %.p ) q.d F T S T s F 8.I ) R +.o.P c m ' J Q n.o.v v n 6 ",
"X.8.9 e H j  .| T m C Z d J H ) 4 , b I I +.+.S Z Y *.! t s i w H b T ` h ~ 3.Z b R S H F ! O.o.Q R ..@.v t I 5.F S k.:.x m Z s ",
"@.:.q n I P W | o.n B I j R b ) F % t P V +.+.D t Z +.%.t s < w T F I R F ! O.J b o.T b J W O.O.T I o.@.S t  .~ j j g.t.0 c f d ",
"X.;.c m C N Y | | I M C P ~ f T R 4 f P N | ..T w e W O.Z 7 , w T S b R H %.T R b R T H D I +.R S R +.o.T c 3.D j h 9.h.r c s F ",
" .:.n D B N B W W T m Y I Y f f T Z Z n n I Y Q f 6 E | | 6 6 f T T b R R 8.I R b P ! S A P W S b Y o.W Y Y @.A j e ~ v.S f w J ",
" .@.N Y N m m W W I m P U P F s I Z c b W I B I D e D W +.Z D S I o.H T o.8.S R S b *.S Z D W c F Y o.R I  .W j j e A k.Y b s ) ",
" .;.Y ..B n m C W P n P U N P f F S b S w.O.m D I S D I | o. .Y H } %.U o.-.S I S c &.S j S E c S Y | T m O.D j h h e q.! b f &.",
" .:.W { B A O. . .Z e M D B N P b b S *.D *.c Z D o.I P U | ..+.m Y W I +.$.n S I t +.T e Z Y t c B | T c @.Z e d h e  .Q g S 4.",
"..@.C V M n E ;.t.g 4 n D P m Y b b W z.c &.n g S 8.| I B [ } ..V P R P  .@.Z Z S t o.R e t P t b I | Q c 8.l 7 7 l j T P t Q 8.",
" .@.N N M O.N W h.g = 9 m V m P S t 9.r.Z O.P e S :.o.! B V | ..| v T P +. .j e F b | o.e t S 8 t N Y ! m 3.f 4 j k d S c e *.3.",
"@. .n m m 2.W N l.L % K D m P N c t z.@.Z ! I e S 0.W R W V | { ..m S D o. .e 5 T v +.o.w w n w t m T R I 3.e , K u 4 Z 8 t 9.+.",
"@.| n n n ~ O.m d.4.4 Q Y m S N c n c.E S E R 8 n :.o.S o.C { | } U m S o.W d A -.v } o.e 2 t 6 8 m I P Y @.5 4 _ ^ & h , Z u.I ",
"@.E q t q E @.D ;.h.Z M O.P N N c A h.A Z P Q w j 3.W S W W C | Y S Z Z W E e T $.S T R f 4 e 3 t R R v W  ., k J ] & d , D t.m ",
"@.I q q t E  .E W m.Q n o.o.m V t Q u.g D m W f e @.} S W | C { W c Z Z T T 7 D @.S S Y f * J e n o.Y I Y ..8 ( F 7.- 5 , ~ 4.n ",
"@.P 8 8 t E W O.D n.;.c I @.N m t ' 9.g m m T F e +.W S E Y B C | Z t j I A 6 A +.S b P d 4 Q Z T } U +.o.} c J F u.> - 4 4.;.q ",
"O.Z 3 3 m E D  .A b.9.g m  .W m t ;.~ Z 2.m I I w | | Z T C m C C m d j D Z K D o.S t S f 6 I I P U } | ..C n h K h.k O d u.E m ",
"O.Z , 3 D D M  .A h.9.t n W @.n 9 ;.~ 9.t.B m Q 7 T Y S I V v V C S d d Z n y.Z W H e b d e I Q P N C [ [ m g 5 Q d.] o L t.g m ",
"O.f , j I Z n O.D t.t.g g B @.A 9 ~ >.b.C C V E w H Y Z S P c B | m 7 d Z I c.g T Z 6 t e c O.+.S v Y C C v h = 2.8.7.5 2.4.9 M ",
"o.f J &.D Z 8 W D >.t.g e m @.I 9 ~ l.>.v N Y W t f I c Y 8.r n { m 4 7 t o.j.e D A 4 m ' ~ W S I P Y N V v 7 ; i.Q 5.( 9.~ 9 I ",
"! J r.Q S Z g o.D ;.t.t 6 t O.O.9  .b.C n x C { Z e S t O.g.m v C M = 7 t 8.g.w S A 6 9.t.W x n I o.+.v m n 4 u x.a K 9.t.A 9 I ",
"E &.g.S S b ' @.I o.q.D 7 e O.O.h >.f.m n q N | S t Z t :.q.E m B n = 4 g t.q.6 Z D E g.X.W q c I +.-.t m t 3 Q a.- u u.9.7 7 M ",
"Q 9.8.t Z j A O.~ R 6.` F * Q O.E t.,.m o.q n C N 8 e t 9.8.Y Y B g - 4 S d.9.4 Z D 9.>.W @.n 9 P +.$.r t t w 9.2.y - 4.;.g g g ",
"E g.&.e f D ~ Q ~ R &.~ 5.% G ;.;.t.;.B 3.c c C N 6 6 e 9.;.I | m 9 @ = E s.3.4 t I t.| W X.T 0 I +.+.f w t g r.S 7 @ ;.q.;.9 g ",
"E g.E i t 3.g.A ` T &.E h.4 p O.X.<. .N 8.c r N P 2 4 f 8.@.n | B 4 @ = ~ 1.;.* e o.q.M E  .W n W  .@.t 6 e I 9.t w w ;.h.L 8 w ",
"Q h.J 6 e g.q.F R ! %.T k.A ; ~ X.:.! m -.Z t P S 2 k 5.r. .t Y W = + = ;.,.~ * g ;.;.M Y C | W W ..+.f * e o.O.8 w t ;.r.d 4 4 ",
"Q j.A 4 g h.:.j F ` O.Z d.;.; D @.;.! n @.H e v v 2 =.J e.| q m W 7 X 5 ;.,.E % g 8.| n B E |  .} +.o.s $ 8 3.T 3 9 t 9.%.y % 6 ",
"D h.A = A h...A d ! O.e O.>.j j  . .! c O.I 8 t t f r.J q.T 9 g C I ; h :.,.D ; D 8.P c M M W C } } Y F * t w.b 4 3 A q.H ; $ J ",
"F h.F % D g.E Q p ) +.s D 1.W j ~ o.o.Z o.R w 0 t D 9.T 8.I 7 8 N } Z Z :.:.D 4 D ;.n c Z S U [ U Y I R s H 8.d % 2 E q.j & & &.",
"F d.A # Q q.T E s T +.F Q ,.;.A T o.O.T R o.e 3 6 D 8.J 3.D j d t C B T @.:.D 6 I  .t t t c V U U U P W A T 2.t 4 , ' q.f & * e.",
"h t.J o ` 8.I R f A o.&.O.+.:.V P Y W ~ Z ~ Z 2 2 J 3.Z 2.A h _ 2 U C +.@.$.A w T W w J ~ r N V C N P R I S O.Z 2 6 8.0.d & u r.",
"f q.! , &.3.H P H f Y 0.T m :.[ V B | o.Z H E w , ~ @.S O.g w 5.4 S U } X.@.Z 7 T P < J y.c v N V m P R S n o.F 2 J q.:.w & a r.",
"f 9.O.b &.-.S S T p R d.F 0 :.{ N V | | o.Y T n e ~ @.O.O.f 3 7.k i I Y  .@.j 6 I Z , T c.c v v N b I Y n e ! J 4 ` 8.:.6 & h r.",
"d 8.X.%.R =.S Z R i R d.e <  .$.v v W o.W  .| m t W | @.! t 2 2._ & S C | O.e 6 n n , ~ t.v v v v t P T g 4 T ! J G &.$.6 & G q.",
"d ;.:.*.Z 8.D c R w ! d.w 8 Y 0.N x Y X.B | ..V t T Y @.Q w 2 Q y.% Z V Y W 7 w n q 2 2.q.c x v r s I I e , H +.) , ' -.w $ / r.",
"d @.,.! b *.P t Y f ~ q.Z F S 8.C q B :.N B +.o.n S Y O.T 3 2 A a.4 e m N I 9 7 9 4 4 9.:.x v v 4 F I I d f S +.Z $ ~ *.t % ` s.",
"d O.<.Z Z O.! t U S %.8.S Z n @. .t m 8.B N C ..I S I O.S 4 4 t a.G 6 m m C 7 = @ @ ; a. .x c t * ) P m D z Z  .D * O.+.c 8 *.0.",
"h ! q.s j *.%.c P S W $.n ! Z | +.t v 8.W c U {  .c T  .S 4 ; e y.' 2 n n M D h @ . ; a.| q q 4 4 *.I n Z % j | Y A $.X.I t *.0.",
"h Q 0.e Z %.O.b P S W O.m 8.H T @.n t @.O.t D [ +.t T O.F , 4 2 2.4.4 t x m m C K ; 5 u.C q e $ h *.I c n 3 D Y Y W #.#.E t 8.:.",
"h J 8.e f o.o.S S m Y +.m 9.A P  .P 8 X.8.t n C Y c Q o.Z , 4 4 E u.6 w g q q n M D h r.I e ; @ F @.T c n t  . .Y Y #.#.Y v 8.X.",
"l A >.e f ! o.S Z v I W m r.A n | T 8 ! >.t t B I t ! &.t s l 2 Z t.j 4 t e g j t n T 9.Y 6 O - n @.I e g M >.;.m B #.#.B x >. .",
"l l :.g e E O.T Z c N I m q.A j Y Y 8 I 8.Z e m m t ` o.e F 6.6 e 9.Q % 7 6 ~ L 4 t m 3.o.:   a e O.D 4 2.t.1.;.n B { #.B n :. .",
"A h ;.A w Y o.! S t S m n r.F t C I 9 n @.H w n t f &.~ w Q h.n 3 @.&.$ $ 5 ' G & 7 r +.*.k @ ^ w ~ Q 4.d.>.t. .g m { #.P n :. .",
"D 6 ;.D 6 T ! o.R r v v n q.j e B C g m @.T w q e b O.Q 6 P j.A 4 W 2.4 p n ;.j & * 3 T *./ p k 2 W s.t.W ;.<.;.g n X.{ P m :. .",
"~ h  .L 3 B Y +.T 0 c c n q.j e N C m m O.E 6 e s Z &.T 2 S j.! 2 D :.A g t o.j % * , A *.T j p 3 3.d.m D ;.>.;.q m | ..I M ;.W ",
" .D  .E 6 m Y  .I 0 b 0 n 9.g e m | M t o.T 7 7 i A O.H 2 S d.O.= n ;.E w n O.I t % % J O.D T l j j.E t g ;.;.;.q c | ..W D ;.C ",
" .Y  .I w n Y  .I t &.8 Z 3.n t m ..N t T Q 5 ; i J +.Z 6 Z s.;.4 e +.W t W W T I , 7 O. .D T j O.q.q e g ~  .;.q c | ..W n  .B "
};
