/* XPM */
static char *tree[] = {
/* columns rows colors chars-per-pixel */
"43 64 240 2 ",
"   c #0B381D",
".  c #16381D",
"X  c #173B20",
"o  c #313D22",
"O  c #683C26",
"+  c #007F00",
"@  c #184529",
"#  c #1E5C2F",
"$  c #1A4C32",
"%  c #1E5235",
"&  c #2C4B2D",
"*  c #364B2B",
"=  c #264D34",
"-  c #265A38",
";  c #375639",
":  c #22652E",
">  c #276C2D",
",  c #217722",
"<  c #39732F",
"1  c #266A33",
"2  c #286A37",
"3  c #2B6D34",
"4  c #33693B",
"5  c #2E723A",
"6  c #357538",
"7  c #565132",
"8  c #785031",
"9  c #446238",
"0  c #516A37",
"q  c #457C35",
"w  c #255D41",
"e  c #355B44",
"r  c #2C6648",
"t  c #38664B",
"y  c #387845",
"u  c #336B50",
"i  c #377558",
"p  c #3E7B61",
"a  c #4D6B46",
"s  c #477A57",
"d  c #507152",
"f  c #597657",
"g  c #74734B",
"h  c #6E6C59",
"j  c #487C62",
"k  c #577761",
"l  c #9E3827",
"z  c #A13A27",
"x  c #A13C2A",
"c  c #8F4F2F",
"v  c #9A5836",
"b  c #A44432",
"n  c #A94B39",
"m  c #AA553B",
"M  c #B45737",
"N  c #A2623F",
"B  c #BC6235",
"V  c #C36B3C",
"C  c #995D43",
"Z  c #A85748",
"A  c #B25543",
"S  c #B55B45",
"D  c #8C6748",
"F  c #86724B",
"G  c #957052",
"H  c #A76945",
"J  c #B5644A",
"K  c #BA624D",
"L  c #AE714D",
"P  c #BA6754",
"I  c #AC7054",
"U  c #B57A56",
"Y  c #B67958",
"T  c #8B7B63",
"R  c #A97D6B",
"E  c #CA7647",
"W  c #C16D56",
"Q  c #C6735D",
"!  c #C87963",
"~  c #CC7A64",
"^  c #008000",
"/  c #09860B",
"(  c #0C860C",
")  c #0F8911",
"_  c #138A13",
"`  c #178818",
"'  c #1B8D1B",
"]  c #228E1F",
"[  c #1F8F20",
"{  c #2A8C26",
"}  c #249224",
"|  c #279228",
" . c #2B942B",
".. c #2E9630",
"X. c #339131",
"o. c #319532",
"O. c #389835",
"+. c #3C9B3B",
"@. c #498F36",
"#. c #578937",
"$. c #699537",
"%. c #769A36",
"&. c #4CA33D",
"*. c #7FA23B",
"=. c #3D8A41",
"-. c #3E824B",
";. c #3E9B41",
":. c #498746",
">. c #43824C",
",. c #578E47",
"<. c #459945",
"1. c #478753",
"2. c #4D8E5A",
"3. c #558B58",
"4. c #4C9258",
"5. c #52935D",
"6. c #569B59",
"7. c #749B45",
"8. c #6D9052",
"9. c #669758",
"0. c #46A245",
"q. c #4CA34C",
"w. c #4DA051",
"e. c #54A353",
"r. c #58A757",
"t. c #5BAB5B",
"y. c #79A84C",
"u. c #65A65A",
"i. c #77A251",
"p. c #4C8668",
"a. c #578765",
"s. c #539362",
"d. c #5C9464",
"f. c #569962",
"g. c #5A9D66",
"h. c #5C9D69",
"j. c #5B8C74",
"k. c #688868",
"l. c #659768",
"z. c #76956B",
"x. c #6E8470",
"c. c #768A77",
"v. c #679475",
"b. c #6C9B74",
"n. c #779B77",
"m. c #5DA662",
"M. c #5EA26B",
"N. c #62A36C",
"B. c #69A868",
"V. c #72A766",
"C. c #67B267",
"Z. c #7CB96A",
"A. c #6BA774",
"S. c #76A878",
"D. c #6DB371",
"F. c #78B579",
"G. c #87A736",
"H. c #96875A",
"J. c #81955E",
"K. c #B3815E",
"L. c #8CAE4E",
"P. c #98B556",
"I. c #A4BD56",
"U. c #908F6E",
"Y. c #AD8C6D",
"T. c #BB8765",
"R. c #B48872",
"E. c #A5967A",
"W. c #87B468",
"Q. c #94B566",
"!. c #89AD70",
"~. c #96B972",
"^. c #AEA579",
"/. c #B1A87E",
"(. c #CE8357",
"). c #DA8A5A",
"_. c #C9886D",
"`. c #D19069",
"'. c #D28B76",
"]. c #C69774",
"[. c #C79B79",
"{. c #C89C78",
"}. c #D5927C",
"|. c #E49866",
" X c #D1A47A",
".X c #ECA877",
"XX c #F1AD7C",
"oX c #F3B07F",
"OX c #95C278",
"+X c #AFC872",
"@X c #6D9A82",
"#X c #7BA784",
"$X c #7CB383",
"%X c #7AA392",
"&X c #87998A",
"*X c #979487",
"=X c #B49E8F",
"-X c #86AA89",
";X c #94A988",
":X c #87B888",
">X c #98B787",
",X c #86A897",
"<X c #98A99A",
"1X c #8DB995",
"2X c #97B899",
"3X c #BAA885",
"4X c #AEB08F",
"5X c #A7B999",
"6X c #9DA6A1",
"7X c #9EBBA5",
"8X c #A7B8A9",
"9X c #B3BAA6",
"0X c #B7BAB0",
"qX c #D09D8F",
"wX c #CEAD8F",
"eX c #EDB28A",
"rX c #F6B484",
"tX c #CEB8A0",
"yX c #D3B8A6",
"uX c #95C48B",
"iX c #97C696",
"pX c #AEC995",
"aX c #9BC4A3",
"sX c #A6C8A7",
"dX c #B5C4A4",
"fX c #B1D2A9",
"gX c #ADCCB2",
"hX c #B9CABA",
"jX c #B6D4BA",
"kX c #FFC393",
"lX c #FBC89B",
"zX c #CBD2A4",
"xX c #CBD5B4",
"cX c #F2CDAD",
"vX c #BBD5C0",
"bX c #CBD3CA",
"nX c #C6D9C8",
"mX c #D4E5D0",
"MX c #E6EED7",
"NX c #EFF3EE",
/* pixels */
"^ ^ ^ ^ ^ ^ ^ ^ + ^ _  .0.uX$Xs.M.5.=...+XP.S.h.f.t.{ ` +.Z.pX&.} ^ ^ ^ ^ ^ ^ ^ ^ ^ ^ ",
"^ ^ ^ ^ ^ ^ ^ + _ q.A.$X:X:X$X@Xf.g.5.Z.+X$.5.l.:Xt.Z.+X+X+XOXuXt.^ ^ ^ ^ ^ ^ ^ ^ ^ ^ ",
"^ ^ ^ ^ ^ ^ ^ ' m.N.h.M.M.M.F.nXb.5.d.zXI.#.:.D.zX+X+XzXMXt./ | +.^ ^ ^ ^ ^ ^ ^ + ^ ^ ",
"^ + ^ ^ ^ ^ _ N.d.2.f.g.f.4.1.b.8X1.2.~.L.< 1.Q.P.i.:XaXjXiX` + ^ ^ ^ ^ ^ ^ ^ ^ ^ ^ ^ ",
"^ ^ ^ ^ ^ +  .aXhXjXjXgX2Xb.y 3 3.l.5 i.L.< y.7.:.5.5.s.N.$XC.) ^ ^ ^ ^ ^ ^ ^ ^ ^ ^ ^ ",
"^ ^ ^ ^ + + _ fXMXvXjXgXgX7X,Xl.3 s 1 ,.*.,.7.,.l.h.1.y y >.1.6./ ^ ^ ^ ^ ^ ^ ^ ^ ^ ^ ",
"^ ^ ^ + / O.N.A.h.s.s.2.1.>.:.Q.P.7.< q $.%.L.pXxXmXnXnX7Xb.S.$Xe.^ ^ ^ ^ ^ ^ ^ ^ ^ ^ ",
"^ ^ + ( t.A.f.-.y -.l.3.5 ,.I.L.G.%.#.> < < 6 #.L.P.P.n.2XsXgXuXF.^ ^ ^ ^ ^ ^ ^ + ^ ^ ",
"^ ^ ^ 6.5.s 2.N.2XvXmXaX!.P.G.$.< 3 > : : : : : > #.L.L.5 3.D.q.' ^ ^ ^ ^ ^ ^ ^ ^ ^ ^ ",
"^ ^ | $X5.B.0.m.gX1XA.~.I.G.#.> 3 5 3 y -.1 : 5 y 2.g.L.8.5 5 l.q./ ^ ^ ^ ^ ^ ^ + ^ ^ ",
"^ ^ o.;._ &.D.A.M.s.B.I.G.< 3 1.-.3 -.5.M.5 : 2 s 2.f.5.W.N.-.1 >.B.} ^ ^ ^ ^ ^ ^ ^ ^ ",
"^ ^ + ) e.A.S.g.-.y W.L.q 2 5.1.1 - f.M.M.-.: : ; c.#Xe q B.M.2.3 A.D.^ ^ + ^ ^ ^ ^ ^ ",
"^ ^ _ m.1XaXh.y 4 ,.I.#.- 5.1.1 - - h.M.M.1.: -   = v.l.= 4 g.M.2.6 g.^ + + ^ ^ ^ ^ ^ ",
"^ ( D.jXvX2.>.S.-XQ.$.@ u 5.1 r w X s M.M.4.: : %   @ b.<.= e s.1.-.h.w.+ ^ ^ ^ ^ + ^ ",
"^ ' r.aX5.b.D.D.#XL.4 e s.5 y i w   e h.M.6.1 y i w   ; X.X.e x.y h.d.+.+ + ^ ^ ^ ^ ^ ",
"^ ^ ;.l.B.iX} 4.l.E.&X-X-.d.j.i w   9 a.h.g.1 b.%Xi w   5 _ >.k c.<XsX..+ ^ ^ ^ ^ ^ ^ ",
"+ _ D.2X0.( _ s.k.uX0.m.3.8Xp p %   e k i h.4 #XvXp.i $ - ` { f bX<XiX( + ^ + ^ ^ ^ ^ ",
"^ ^ ` _ ^ + | s k.o.` d.vX%Xi i %   o c.w s y =.t.,Xi r % { ^ 1.vXsXq.+ ^ ^ ^ ^ + ^ ^ ",
"^ ^ ^ ^ + + ..j <.+ ` t.$Xp.i i $ X O U.t 2 y > 0.iXp u e <.+ 6.b._ / + ^ ^ ^ ^ ^ ^ ^ ",
"^ ^ ^ ^ + + X.v._ + + ) f.p i u $ o b R p.$ - > ^ o.p.w t f.+ + + + ^ ^ ^ ^ ^ ^ ^ ^ ^ ",
"^ ^ ^ ^ + + h.$X/ ^ ^ ( 7Xj u % X 7 P P %X= ; 5 ^ / 2.r t o.+ ^ + + + ^ ^ ^ ^ ^ ^ ^ ^ ",
"^ ^ ^ ^ + + q.w.^ ^ ^ ^ w.p.r @ @ h Q Z 0Xu e :X_ ^ 4.p.k.` + ^ + + ^ ^ + ^ ^ ^ ^ ^ ^ ",
"^ ^ ^ ^ ^ ^ ^ ^ ^ ^ ^ ^ ` p.t d X D ~ A yX,X- 7X[ ^ ;.v.gX` ^ ^ ^ ^ ^ ^ ^ ^ ^ ^ ^ ^ ^ ",
"^ ^ ^ ^ ^ ^ ^ ^ ^ ^ ^ _ q.A.j <XX R ~ A R.$Xs k.| + t.,XnX_ ^ ^ ^ ^ ^ + ^ ^ ^ ^ ^ + ^ ",
"^ ^ ^ ^ ^ /  .+.' + ] ~.OXt.j 8Xt T ~ K Z @.m.j.w.+ ] 1XmX) ^ ^ ^ ^ ^ ^ ^ ^ + ^ ^ ^ ^ ",
"^ ^ ^ + ^ _ A.N.N.<.y.pX:X-Xv.nXbX=X~ K x 8.) A.S.+ ( S.iX_ ^ ^ ^ ^ ^ ^ ^ ^ ^ ^ ^ + ^ ",
"^ + ^  .w.N.fX1X6.S.+Xu.#XmXpX>XpXtXW x z g ( o.0.+ ^ / ^ ^ ^ ^ ^ + ^ ^ ^ ^ ^ ^ ^ ^ ^ ",
"^ + o.A.h.M.l.-Xb.b.Q.@.W.~.5X1X' 9.P x b C { + ^ + + + ^ ^ ^ ^ ^ ^ ^ ^ ^ ^ ^ ^ ^ ^ ^ ",
"^ + D.vXgXaXS.s 3.s y.,.7.2.3.h.m.;.R K W A 8.^ ^ ^ ^ ^ ^ ^ ^ ^ ^ ^ ^ ^ ^ ^ ^ ^ ^ ^ ^ ",
"/ ;.$X#Xb.d.k.V.7.q #.%.~.pX2X-X#X;.u.qX~ A H.e.^ ^ ^ ^ ^ ^ ^ ^ + ^ ^ ^ + ^ ^ ^ ^ ^ ^ ",
"<.l.A.S.1XV.L.*.#.< > 3 q 7.W.S.1X .} /.~ S P >X^ ^ ^ ^ ^ ^ ^ ^ ^ ^ ^ ^ + ^ ^ ^ ^ + ^ ",
":XN.iX7X$XQ.$.6 5 5 -.> 5 1.9.9.>.5.' i._.W n J.^ ^ ^ ^ ^ ^ ^ ^ ^ ^ ^ ^ ^ ^ ^ ^ ^ ^ ^ ",
"q.$XN.-.8.7.y -.2 2.M.5 - f v.d f.>.=.V.}.Q n G ' + ^ ^ ^ ^ ^ ^ ^ ^ ^ ^ ^ ^ ^ + ^ ^ ^ ",
"aX-X3.l.7.4 1.5 - 2.M.6 # @ &X%Xs 2.>.N.qX~ S Z >X' + ^ ^ ^ ^ ^ ^ ^ ^ ^ ^ ^ ^ ^ ^ ^ ^ ",
"sXl.C.S.z.s -.i $ s M.-.s r = 7X3.k n.iXyX~ W x 3X;.+ ^ + ^ ^ ^ ^ ^ + ^ ^ ^ ^ ^ ^ ^ ^ ",
"$X} <.-X!.b.%Xi @ d p.-.T v.w f 6.6XxXC.pX'.! M D ' + ^ ^ ^ ^ ^ ^ ^ ^ ^ ^ ^ ^ ^ + ^ ^ ",
"_ ^ 4.:Xt.:Xj.u $ &Xk u D *Xu s <.1Xt.( u.{.~ K b 8./ ^ ^ ^ ^ + ^ ^ ^ ^ ^ ^ ^ ^ ^ ^ ^ ",
"^ / A.e.+ r.p.r t NX%X= D R.j j } ] ^ ^  .tX~ P x R q.+ ^ ^ ^ ^ ^ ^ ^ ^ ^ + ^ ^ ^ ^ ^ ",
"+ ^ +.' +  .j.w k NXmXe c Z c.l./ ^ ^ ^ _ 5XY n l Z dX..+ + ^ ^ + ^ ^ ^ ^ ^ ^ ^ ^ ^ ^ ",
"+ + + + + ( a.k c.NXmX%X8 b *XD.+ ^ ^ ^ + +.Y S n l qXr.+ ^ ^ ^ ^ ^ ^ ^ + ^ ^ ^ ^ + ^ ",
"^ ^ ^ ^ ^ ^ <.8X8XF.' m.U.K U.$X^ ^ + ^ + _ 3X_.W z Z pX[ + + + ^ ^ ^ ^ ^ ^ ^ ^ + ^ ^ ",
"^ ^ ^ ^ ^ + { vXxXe.^ _ /.Q H O.+ ^ ^ ^ ^ ^ V.'.~ n x =X| + + + ^ ^ ^ ^ ^ ^ ^ ^ ^ ^ ^ ",
"^ + ^ ^ + + [ C._ ^ + ) 4XQ n 9./ ^ ^ ^ + +  .wX~ W x C { + / + ^ ^ ^ + ^ ^ ^ ^ ^ ^ ^ ",
"^ ^ ^ ^ + + + + ^ ^ + ) dXY b *X' ^ ^ ^ + + ( !._.~ n x 8.` + + ^ ^ ^ ^ ^ ^ + ^ ^ ^ ^ ",
"^ ^ + ^ + ^ ^ ^ ^ ^ ^ ^ r.qXJ D _ ^ ^ ^ + + + X.{.~ S z I r.^ ^ ^ ^ ^ ^ ^ ^ ^ ^ ^ + ^ ",
"^ ^ ^ ^ + + ^ ^ + ^ ^ + / /.! J <.^ ^ ^ + + ^ ` 4XQ m x b ;X) ^ ^ ^ ^ ^ ^ ^ ^ ^ ^ ^ ^ ",
"^ ^ ^ ^ ^ ^ ^ + ^ ^ ^ + ^ V.'.K q ^ ^ ^ ^ ^ ^ ^ :X}.W n z I u.^ ^ ^ ^ ^ ^ ^ ^ ^ ^ ^ ^ ",
"^ ^ ^ ^ ^ ^ ^ ^ ^ ^ ^ + + O.Y n g ( ^ ^ ^ ^ ^ ^ +.yX~ W z Z 9X] + ^ + ^ ^ + ^ ^ ^ ^ ^ ",
"^ + ^ ^ ^ ^ ^ + ^ ^ ^ ^ + ] R.S C { + + + + ^ ^ ^ u.}.! m z R O.+ + + + ^ ^ ^ ^ ^ ^ ^ ",
"^ ^ ^ ^ ^ ^ ^ ^ ^ ^ ^ + + ' 3XQ G ] + + + + ^ ^ ^ ' 3X~ S z b 8./ ( <._ + ^ ^ ^ ^ ^ ^ ",
"^ ^ ^ ^ ^ ^ + ^ ^ ^ ^ ^ ^ } tX~ I <.+ + ' O.o./ ^ ^ u.}.n x l Z O.{ l.t.( + ^ ^ ^ ^ ^ ",
"^ ^ ^ ^ ^ ^ ^ + ^ ^ ^ ^ ^ } tXQ Z U.( + r.<XfX..C.) r.R.n A S x E.S.9.sXr.&.+ + ^ ^ ^ ",
"+ ^ ^ ^ ^ ^ + + ^ ^ + + ^ ) >X_.A g + + A.5X1XF.sXC.a.9X~ W ! b b z.l.n.uXC.} w.B.O.^ ",
"^ ^ + ^ ^ ^ + + ^ + + + ^ ^ #._.P G +.+ l.xXk.B.!.u.h bXwX~ ~ K z R.z.;X-X<.,.c.nX0.+ ",
"^ ^ ^ ^ + _ D.r.^ ( + ( 0.) @._.A C iX..,.8XU.k.gXl.c.gXbX}.~ ! J Y F c.8X9.f mXmX0.+ ",
"^ ^ ^ ^ ^ 0.2XV.o.e.' 6.7X[ +._.S Z cXwX^.U.5X9 ;Xa c.*X;XY.`.[.[.T.L G ;X; 8X0XiX .( ",
"^ + ^ ^ / F.xX,.e.e.B.c.xX} &.wX.XeXlXkXoX`.^.< f ; a 7.H.{. X XT.U U N 7 f !.0X5Xu.!.",
"^ ^ ^ ^ + :.6X&Xz.S.l.&X0X3XwXcXlXkXkX.X|.|.N * & * F Y. X{.{.R.K.U U H c c 0 a z.n.:.",
"^ ^ ^ ^ + ] z.5Xf ;Xd =XwXrXlXlXkXkX.X|.|.|.E c o F T. X{.{.[.T.Y Y K.H c v 8 9 f c.-X",
"^ ^ + ^ _ { z.z.0 f 9 /.oXlXlXkXkXkX|.|.|.|.V B L Y.T. X{.{.[.U U U Y H l m v 7 9 k !.",
"^ ^ ^ <.!.l.f * * * g .XXXlXkXkXkXoX).|.|.|.V B `.K.].{.{.{.{.L L L U N c v c v l., 6 ",
"^ + / r.n.z.9 . X *  X.XXXkXkXkXkX.X).).|.).B V ].U ].{.{.{.].H L L L v c c v ^.0.^ / ",
"^ + | V.t.aX,.* o g .X).|.oXoXoXoX).).).).(.B L T.H K.K.K.K.U N N v v F U.i.} } ^ ^ ^ ",
"^ ^ / } ( &.,.z.z.9X/.tX].(.(.(.).V V V B V L H.H.H.G H I K.H.Y.Y.J.@. ._ ( ^ / + ^ ^ "
};
